<?xml version="1.0" encoding="UTF-8"?>
<svg width="601px" height="90px" viewBox="0 0 601 90" version="1.1" xmlns="http://www.w3.org/2000/svg" xmlns:xlink="http://www.w3.org/1999/xlink">
    <title>NMapsMap-SwiftPM-Logotype</title>
    <g id="NMapsMap-SwiftPM-Logotype" stroke="none" stroke-width="1" fill="none" fill-rule="evenodd">
        <path d="M27.6875,66 L27.6875,38.3144531 L27.8632812,38.3144531 L47.0234375,66 L54.6992188,66 L54.6992188,23.7246094 L45.8808594,23.7246094 L45.8808594,51.2050781 L45.7050781,51.2050781 L26.6035156,23.7246094 L18.8691406,23.7246094 L18.8691406,66 L27.6875,66 Z M69.6113281,66 L69.6113281,37.40625 L69.8457031,37.40625 L81.2714844,66 L86.8378906,66 L98.234375,37.40625 L98.4980469,37.40625 L98.4980469,66 L106.378906,66 L106.378906,23.7246094 L96.1542969,23.7246094 L84.1425781,54.1054688 L83.9667969,54.1054688 L71.9550781,23.7246094 L61.7304688,23.7246094 L61.7304688,66 L69.6113281,66 Z M121.378906,66.4980469 C125.509766,66.4980469 128.849609,64.5351562 130.636719,61.3125 L130.8125,61.3125 L130.8125,66 L139.367188,66 L139.367188,44.4667969 C139.367188,38.1386719 134.123047,33.9492188 126.007812,33.9492188 C117.716797,33.9492188 112.736328,38.109375 112.267578,43.9101562 L112.238281,44.2617188 L120.060547,44.2617188 L120.119141,43.9980469 C120.529297,41.9765625 122.462891,40.4824219 125.65625,40.4824219 C128.996094,40.4824219 130.8125,42.2109375 130.8125,44.9941406 L130.8125,46.9277344 L123.048828,47.3964844 C115.255859,47.8945312 110.832031,51.234375 110.832031,56.9472656 L110.832031,57.0058594 C110.832031,62.5429688 115.080078,66.4980469 121.378906,66.4980469 Z M124.162109,60.2578125 C121.203125,60.2578125 119.298828,58.8808594 119.298828,56.5664062 L119.298828,56.5078125 C119.298828,54.28125 121.027344,52.875 124.337891,52.6699219 L130.8125,52.2597656 L130.8125,54.515625 C130.8125,57.796875 128,60.2578125 124.162109,60.2578125 Z M153.429688,76.2539062 L153.429688,60.6386719 L153.605469,60.6386719 C155.304688,64.359375 158.849609,66.6445312 163.332031,66.6445312 C171.183594,66.6445312 176.046875,60.4921875 176.046875,50.296875 L176.046875,50.2675781 C176.046875,40.0429688 171.183594,33.9492188 163.214844,33.9492188 C158.761719,33.9492188 155.333984,36.2636719 153.634766,40.0722656 L153.429688,40.0722656 L153.429688,34.59375 L144.875,34.59375 L144.875,76.2539062 L153.429688,76.2539062 Z M160.402344,59.5546875 C156.242188,59.5546875 153.400391,55.9804688 153.400391,50.3261719 L153.400391,50.296875 C153.400391,44.6132812 156.242188,41.0390625 160.402344,41.0390625 C164.650391,41.0390625 167.345703,44.5253906 167.345703,50.2675781 L167.345703,50.296875 C167.345703,56.0097656 164.650391,59.5546875 160.402344,59.5546875 Z M193.390625,66.6445312 C201.476562,66.6445312 207.130859,62.6015625 207.130859,56.4492188 L207.130859,56.4199219 C207.130859,51.7910156 204.435547,49.2128906 197.873047,47.8359375 L192.541016,46.6933594 C189.376953,46.0195312 188.292969,44.9648438 188.292969,43.3535156 L188.292969,43.3242188 C188.292969,41.3027344 190.138672,39.984375 193.097656,39.984375 C196.261719,39.984375 198.107422,41.6835938 198.400391,43.9394531 L198.429688,44.1738281 L206.310547,44.1738281 L206.310547,43.8808594 C206.105469,38.3730469 201.447266,33.9492188 193.097656,33.9492188 C185.099609,33.9492188 179.943359,37.8164062 179.943359,43.7929688 L179.943359,43.8222656 C179.943359,48.5097656 183.019531,51.5566406 189.113281,52.8457031 L194.445312,53.9589844 C197.521484,54.6328125 198.576172,55.5996094 198.576172,57.2695312 L198.576172,57.2988281 C198.576172,59.3203125 196.613281,60.5800781 193.390625,60.5800781 C189.962891,60.5800781 188.117188,59.1445312 187.560547,56.6835938 L187.501953,56.4199219 L179.152344,56.4199219 L179.181641,56.6835938 C179.855469,62.6308594 184.689453,66.6445312 193.390625,66.6445312 Z M219.962891,66 L219.962891,37.40625 L220.197266,37.40625 L231.623047,66 L237.189453,66 L248.585938,37.40625 L248.849609,37.40625 L248.849609,66 L256.730469,66 L256.730469,23.7246094 L246.505859,23.7246094 L234.494141,54.1054688 L234.318359,54.1054688 L222.306641,23.7246094 L212.082031,23.7246094 L212.082031,66 L219.962891,66 Z M271.730469,66.4980469 C275.861328,66.4980469 279.201172,64.5351562 280.988281,61.3125 L281.164062,61.3125 L281.164062,66 L289.71875,66 L289.71875,44.4667969 C289.71875,38.1386719 284.474609,33.9492188 276.359375,33.9492188 C268.068359,33.9492188 263.087891,38.109375 262.619141,43.9101562 L262.589844,44.2617188 L270.412109,44.2617188 L270.470703,43.9980469 C270.880859,41.9765625 272.814453,40.4824219 276.007812,40.4824219 C279.347656,40.4824219 281.164062,42.2109375 281.164062,44.9941406 L281.164062,46.9277344 L273.400391,47.3964844 C265.607422,47.8945312 261.183594,51.234375 261.183594,56.9472656 L261.183594,57.0058594 C261.183594,62.5429688 265.431641,66.4980469 271.730469,66.4980469 Z M274.513672,60.2578125 C271.554688,60.2578125 269.650391,58.8808594 269.650391,56.5664062 L269.650391,56.5078125 C269.650391,54.28125 271.378906,52.875 274.689453,52.6699219 L281.164062,52.2597656 L281.164062,54.515625 C281.164062,57.796875 278.351562,60.2578125 274.513672,60.2578125 Z M303.78125,76.2539062 L303.78125,60.6386719 L303.957031,60.6386719 C305.65625,64.359375 309.201172,66.6445312 313.683594,66.6445312 C321.535156,66.6445312 326.398438,60.4921875 326.398438,50.296875 L326.398438,50.2675781 C326.398438,40.0429688 321.535156,33.9492188 313.566406,33.9492188 C309.113281,33.9492188 305.685547,36.2636719 303.986328,40.0722656 L303.78125,40.0722656 L303.78125,34.59375 L295.226562,34.59375 L295.226562,76.2539062 L303.78125,76.2539062 Z M310.753906,59.5546875 C306.59375,59.5546875 303.751953,55.9804688 303.751953,50.3261719 L303.751953,50.296875 C303.751953,44.6132812 306.59375,41.0390625 310.753906,41.0390625 C315.001953,41.0390625 317.697266,44.5253906 317.697266,50.2675781 L317.697266,50.296875 C317.697266,56.0097656 315.001953,59.5546875 310.753906,59.5546875 Z M350.773438,52.5527344 L350.773438,45.0820312 L331.789062,45.0820312 L331.789062,52.5527344 L350.773438,52.5527344 Z M373.449219,66.7324219 C384.113281,66.7324219 390.5,61.5761719 390.5,53.4609375 L390.5,53.4316406 C390.5,46.78125 386.515625,43.1777344 377.667969,41.4199219 L373.185547,40.5117188 C368.322266,39.5449219 366.154297,37.9921875 366.154297,35.3261719 L366.154297,35.296875 C366.154297,32.2792969 368.878906,30.1992188 373.419922,30.1699219 C377.785156,30.1699219 380.832031,32.1914062 381.271484,35.5019531 L381.300781,35.8535156 L389.650391,35.8535156 L389.621094,35.296875 C389.210938,27.8847656 383.205078,22.9921875 373.419922,22.9921875 C364.044922,22.9921875 357.306641,28.0898438 357.306641,35.8242188 L357.306641,35.8535156 C357.306641,42.2109375 361.525391,46.1953125 369.875,47.8652344 L374.328125,48.7441406 C379.572266,49.828125 381.652344,51.2636719 381.652344,54.1347656 L381.652344,54.1640625 C381.652344,57.3867188 378.576172,59.5253906 373.683594,59.5253906 C368.849609,59.5253906 365.363281,57.4746094 364.806641,54.1933594 L364.748047,53.8710938 L356.398438,53.8710938 L356.427734,54.3398438 C356.925781,62.1328125 363.400391,66.7324219 373.449219,66.7324219 Z M410.275391,66 L415.929688,43.7929688 L416.105469,43.7929688 L421.789062,66 L430.900391,66 L439.220703,34.59375 L430.783203,34.59375 L426.007812,57.8847656 L425.832031,57.8847656 L420.236328,34.59375 L412.033203,34.59375 L406.466797,57.8847656 L406.291016,57.8847656 L401.544922,34.59375 L392.931641,34.59375 L401.28125,66 L410.275391,66 Z M447.013672,30.5507812 C449.591797,30.5507812 451.583984,28.5292969 451.583984,26.0976562 C451.583984,23.6660156 449.591797,21.6445312 447.013672,21.6445312 C444.435547,21.6445312 442.443359,23.6660156 442.443359,26.0976562 C442.443359,28.5292969 444.435547,30.5507812 447.013672,30.5507812 Z M451.291016,66 L451.291016,34.59375 L442.736328,34.59375 L442.736328,66 L451.291016,66 Z M467.84375,66 L467.84375,41.0390625 L473.878906,41.0390625 L473.878906,34.59375 L467.638672,34.59375 L467.638672,32.3964844 C467.638672,30.140625 468.898438,28.9394531 471.740234,28.9394531 C472.53125,28.9394531 473.351562,28.96875 473.9375,29.0859375 L473.9375,23.4316406 C472.941406,23.2265625 471.212891,23.0800781 469.630859,23.0800781 C462.21875,23.0800781 459.289062,25.921875 459.289062,32.0742188 L459.289062,34.59375 L455.011719,34.59375 L455.011719,41.0390625 L459.289062,41.0390625 L459.289062,66 L467.84375,66 Z M490.841797,66.6445312 C492.628906,66.6445312 494.005859,66.46875 494.972656,66.3222656 L494.972656,60.0527344 C494.445312,60.1113281 493.888672,60.1992188 493.126953,60.1992188 C490.548828,60.1992188 489.230469,59.203125 489.230469,56.2734375 L489.230469,41.0390625 L494.972656,41.0390625 L494.972656,34.59375 L489.230469,34.59375 L489.230469,26.9179688 L480.587891,26.9179688 L480.587891,34.59375 L476.222656,34.59375 L476.222656,41.0390625 L480.587891,41.0390625 L480.587891,57.2109375 C480.587891,63.9492188 483.869141,66.6445312 490.841797,66.6445312 Z M509.269531,66 L509.269531,52.6699219 L517.414062,52.6699219 C526.320312,52.6699219 532.267578,46.9277344 532.267578,38.2265625 L532.267578,38.1679688 C532.267578,29.4667969 526.320312,23.7246094 517.414062,23.7246094 L500.421875,23.7246094 L500.421875,66 L509.269531,66 Z M515.246094,45.7558594 L509.269531,45.7558594 L509.269531,30.7265625 L515.246094,30.7265625 C520.314453,30.7265625 523.302734,33.3925781 523.302734,38.1972656 L523.302734,38.2558594 C523.302734,43.0605469 520.314453,45.7558594 515.246094,45.7558594 Z M545.363281,66 L545.363281,37.40625 L545.597656,37.40625 L557.023438,66 L562.589844,66 L573.986328,37.40625 L574.25,37.40625 L574.25,66 L582.130859,66 L582.130859,23.7246094 L571.90625,23.7246094 L559.894531,54.1054688 L559.71875,54.1054688 L547.707031,23.7246094 L537.482422,23.7246094 L537.482422,66 L545.363281,66 Z" id="NMapsMap-SwiftPM" fill="#2D2D2D" fill-rule="nonzero"></path>
    </g>
</svg>