<?xml version="1.0" encoding="UTF-8"?>
<svg width="90px" height="90px" viewBox="0 0 90 90" version="1.1" xmlns="http://www.w3.org/2000/svg" xmlns:xlink="http://www.w3.org/1999/xlink">
    <title>NMapsMap-SwiftPM-Icon</title>
    <defs>
        <path d="M25.5747552,-1.03325072e-15 L64.4252448,1.03325072e-15 C73.3181443,-6.00348425e-16 76.5429246,0.925935484 79.7940357,2.66464876 C83.0451469,4.40336203 85.596638,6.9548531 87.3353512,10.2059643 C89.0740645,13.4570754 90,16.6818557 90,25.5747552 L90,64.4252448 C90,73.3181443 89.0740645,76.5429246 87.3353512,79.7940357 C85.596638,83.0451469 83.0451469,85.596638 79.7940357,87.3353512 C76.5429246,89.0740645 73.3181443,90 64.4252448,90 L25.5747552,90 C16.6818557,90 13.4570754,89.0740645 10.2059643,87.3353512 C6.9548531,85.596638 4.40336203,83.0451469 2.66464876,79.7940357 C0.925935484,76.5429246 4.00232283e-16,73.3181443 -6.88833815e-16,64.4252448 L6.88833815e-16,25.5747552 C-4.00232283e-16,16.6818557 0.925935484,13.4570754 2.66464876,10.2059643 C4.40336203,6.9548531 6.9548531,4.40336203 10.2059643,2.66464876 C13.4570754,0.925935484 16.6818557,6.00348425e-16 25.5747552,-1.03325072e-15 Z" id="path-1"></path>
        <linearGradient x1="50%" y1="0%" x2="50%" y2="100%" id="linearGradient-3">
            <stop stop-color="#FFFFFF" offset="0%"></stop>
            <stop stop-color="#F2FDFF" offset="100%"></stop>
        </linearGradient>
    </defs>
    <g id="NMapsMap-SwiftPM-Icon" stroke="none" stroke-width="1" fill="none" fill-rule="evenodd">
        <mask id="mask-2" fill="white">
            <use xlink:href="#path-1"></use>
        </mask>
        <g id="Outer-Capsule"></g>
        <g id="Group" mask="url(#mask-2)">
            <g id="NMapsMap-SwiftPM" transform="translate(0.000000, -0.002245)">
                <rect id="Background" fill="url(#linearGradient-3)" x="0.00224542182" y="0.00224542184" width="90" height="90"></rect>
                <path d="M90.0022454,74.2522454 L90.0022454,90.0022454 L43.7402454,90.0022454 L33.0022454,74.2612454 L33.0022454,74.2522454 L90.0022454,74.2522454 Z" id="Shadow" fill="#DCF7FA"></path>
                <rect id="Stripe" fill="#4050FF" x="33.0022454" y="59.2522454" width="57" height="15"></rect>
                <path d="M33.2431346,9.75103829 L33.5546808,9.75705362 C36.7904794,9.8366664 39.9887402,10.5893856 42.9280415,11.973373 C44.0159389,12.4888325 45.07813,13.0955048 46.1042261,13.7954601 C47.3750373,14.6623487 48.5328314,15.6329929 49.5740065,16.6883296 C50.5297471,17.6620078 51.4131194,18.7335023 52.2090308,19.9002648 L52.4877231,20.307338 C57.4537267,27.9365157 57.6592023,38.1145734 52.2090308,46.1042261 L33.002,74.26 L13.7954601,46.1042261 C8.34933593,38.1205066 8.55046213,27.9516313 13.5057121,20.3243389 L13.7954601,19.9002648 C14.5994628,18.7216409 15.4927136,17.6402319 16.4600047,16.6589113 L16.6589113,16.4600047 C17.6402319,15.4927136 18.7216409,14.5994628 19.9002648,13.7954601 C20.9349777,13.0896267 22.0063946,12.4786497 23.1042255,11.9605848 C26.130386,10.5403419 29.4297865,9.78889524 32.7614055,9.75147038 L32.8313385,9.75048266 L32.8313385,9.75048266 L33.1731523,9.75048266 C33.1964787,9.75063282 33.2198061,9.75081803 33.2431346,9.75103829 Z" id="Pin" fill="#00D95A"></path>
                <path d="M44.0800781,42.2600579 C44.1386719,42.0256829 44.1855469,41.7327142 44.1855469,41.3577142 C44.1855469,40.3264642 43.8691406,38.3577142 42.1582031,36.2014642 C42.5214844,35.1350579 42.5683594,33.9749017 42.5683594,33.2717767 C42.5683594,30.1428704 40.8105469,24.6936517 34.9746094,21.1780267 C36.1816406,22.9006829 37.8105469,25.5022454 37.8105469,29.1233392 C37.8105469,30.4358392 37.4589844,31.8889642 37.1542969,32.6038079 C33.9902344,30.7639642 27.9082031,25.7131829 25.4941406,23.1233392 C27.4394531,26.1116204 29.7480469,28.8186517 32.3144531,31.6663079 C28.8691406,29.4983392 25.6582031,27.0608392 22.6582031,24.3772454 C25.5292969,28.5374017 29.1503906,32.6389642 33.9433594,36.4944329 C32.5605469,37.2561517 31.1542969,37.8538079 28.7519531,37.8538079 C25.8339844,37.8538079 22.2597656,36.4358392 20.3144531,34.8655267 C22.1191406,37.8186517 26.8417969,42.3655267 33.2050781,42.3655267 C37.2597656,42.3655267 38.3730469,40.4553704 40.7167969,40.4553704 C42.6738281,40.4553704 43.4589844,41.7795892 43.7519531,42.2952142 C43.8457031,42.4709954 43.9980469,42.5647454 44.0800781,42.2600579 Z" id="Swift" fill="#FFFFFF" fill-rule="nonzero"></path>
            </g>
        </g>
    </g>
</svg>